<svg xmlns="http://www.w3.org/2000/svg" xmlns:xlink="http://www.w3.org/1999/xlink" width="600" zoomAndPan="magnify" viewBox="0 0 450 112.499997" height="150" preserveAspectRatio="xMidYMid meet" version="1.0"><defs><g/></defs><g fill="#6837fd" fill-opacity="1"><g transform="translate(14.442673, 55.235326)"><g><path d="M 44.070312 -26.964844 L 28.988281 -26.964844 C 28.140625 -26.964844 27.554688 -26.378906 27.554688 -25.855469 L 27.554688 -19.128906 C 27.554688 -18.476562 28.140625 -18.019531 28.988281 -18.019531 L 35.386719 -18.019531 L 35.386719 -13.125 C 32.90625 -10.511719 29.578125 -8.878906 25.921875 -8.878906 C 18.738281 -8.878906 12.863281 -13.058594 12.863281 -22.851562 C 12.863281 -31.667969 18.738281 -36.824219 25.921875 -36.824219 C 29.511719 -36.824219 32.84375 -35.324219 35.257812 -32.90625 C 35.648438 -32.449219 36.5 -32.386719 37.019531 -32.84375 L 42.113281 -37.871094 C 42.570312 -38.261719 42.570312 -39.175781 42.242188 -39.632812 C 38.195312 -43.613281 32.1875 -46.355469 25.921875 -46.355469 C 13.1875 -46.355469 2.808594 -36.433594 2.808594 -22.851562 C 2.808594 -7.964844 12.535156 0.652344 24.941406 0.652344 C 29.511719 0.652344 33.167969 -0.523438 36.171875 -3.265625 C 36.171875 -1.894531 36.238281 -2.21875 36.300781 -0.914062 C 36.300781 -0.261719 37.019531 0.195312 37.738281 0.195312 L 44.070312 0.195312 C 44.855469 0.195312 45.378906 -0.390625 45.378906 -0.980469 L 45.378906 -25.855469 C 45.378906 -26.378906 44.855469 -26.964844 44.070312 -26.964844 Z M 44.070312 -26.964844 "/></g></g></g><g fill="#6837fd" fill-opacity="1"><g transform="translate(66.535425, 55.235326)"><g><path d="M 14.039062 -36.367188 L 33.820312 -36.367188 C 34.605469 -36.367188 35.191406 -36.957031 35.191406 -37.542969 L 35.191406 -44.527344 C 35.191406 -45.117188 34.605469 -45.703125 33.820312 -45.703125 L 5.417969 -45.703125 C 4.570312 -45.703125 4.046875 -45.117188 4.046875 -44.527344 L 4.046875 -1.109375 C 4.046875 -0.585938 4.570312 0 5.417969 0 L 34.34375 0 C 35.191406 0 35.78125 -0.585938 35.78125 -1.109375 L 35.78125 -8.355469 C 35.78125 -8.945312 35.191406 -9.53125 34.34375 -9.53125 L 14.039062 -9.53125 L 14.039062 -18.28125 L 30.753906 -18.28125 C 31.535156 -18.28125 32.058594 -18.871094 32.058594 -19.390625 L 32.058594 -26.441406 C 32.058594 -27.03125 31.535156 -27.617188 30.753906 -27.617188 L 14.039062 -27.617188 Z M 14.039062 -36.367188 "/></g></g></g><g fill="#6837fd" fill-opacity="1"><g transform="translate(106.551619, 55.235326)"><g><path d="M 43.027344 -1.109375 L 43.027344 -44.527344 C 43.027344 -45.117188 42.503906 -45.703125 41.65625 -45.703125 L 34.472656 -45.703125 C 33.625 -45.703125 33.101562 -45.117188 33.101562 -44.527344 L 33.101562 -18.019531 C 26.507812 -27.488281 20.5 -35.84375 13.972656 -45.246094 C 13.710938 -45.574219 13.125 -45.703125 12.863281 -45.703125 L 5.484375 -45.703125 C 4.699219 -45.703125 4.113281 -45.117188 4.113281 -44.527344 L 4.113281 -1.109375 C 4.113281 -0.585938 4.699219 0 5.484375 0 L 12.796875 0 C 13.582031 0 14.167969 -0.585938 14.167969 -1.109375 L 14.167969 -27.75 L 33.234375 -0.457031 C 33.496094 -0.128906 34.082031 0 34.34375 0 L 41.65625 0 C 42.503906 0 43.027344 -0.585938 43.027344 -1.109375 Z M 43.027344 -1.109375 "/></g></g></g><g fill="#6837fd" fill-opacity="1"><g transform="translate(156.620735, 55.235326)"><g><path d="M 14.039062 -36.171875 L 34.34375 -36.171875 C 35.191406 -36.171875 35.78125 -36.757812 35.78125 -37.347656 L 35.78125 -44.527344 C 35.78125 -45.117188 35.191406 -45.703125 34.34375 -45.703125 L 5.417969 -45.703125 C 4.570312 -45.703125 4.046875 -45.117188 4.046875 -44.527344 L 4.046875 -1.109375 C 4.046875 -0.585938 4.570312 0 5.417969 0 L 12.667969 0 C 13.515625 0 14.039062 -0.585938 14.039062 -1.109375 L 14.039062 -18.085938 L 30.753906 -18.085938 C 31.535156 -18.085938 32.058594 -18.671875 32.058594 -19.261719 L 32.058594 -26.246094 C 32.058594 -26.835938 31.535156 -27.421875 30.753906 -27.421875 L 14.039062 -27.421875 Z M 14.039062 -36.171875 "/></g></g></g><g fill="#6837fd" fill-opacity="1"><g transform="translate(196.114688, 55.235326)"><g><path d="M 24.941406 -5.222656 L 26.703125 -0.71875 L 26.703125 -0.785156 C 26.835938 -0.328125 27.421875 0 27.945312 0 L 35.84375 0 C 36.824219 0 37.347656 -0.785156 37.019531 -1.566406 L 19.71875 -45.964844 C 19.261719 -46.945312 17.628906 -46.945312 17.171875 -45.964844 L -0.128906 -1.566406 C -0.457031 -0.785156 0 0 1.109375 0 L 8.878906 0 C 9.53125 0 10.121094 -0.328125 10.25 -0.785156 L 10.25 -0.71875 L 11.882812 -5.222656 Z M 14.496094 -13.125 L 16.84375 -19.914062 C 17.5 -21.871094 18.019531 -23.832031 18.476562 -26.246094 C 18.871094 -23.960938 19.390625 -22.070312 20.042969 -19.914062 L 22.328125 -13.125 Z M 14.496094 -13.125 "/></g></g></g><g fill="#6837fd" fill-opacity="1"><g transform="translate(234.955867, 55.235326)"><g><path d="M 25.789062 -8.878906 C 18.609375 -8.878906 12.730469 -14.234375 12.730469 -22.851562 C 12.730469 -30.882812 17.628906 -36.824219 25.789062 -36.824219 C 29.382812 -36.824219 32.644531 -35.324219 35.128906 -32.84375 C 35.585938 -32.449219 36.367188 -32.449219 36.890625 -32.84375 L 41.984375 -37.871094 C 42.375 -38.261719 42.375 -39.175781 42.113281 -39.632812 C 38 -43.613281 32.058594 -46.355469 25.789062 -46.355469 C 12.273438 -46.355469 2.613281 -36.628906 2.613281 -22.851562 C 2.613281 -8.488281 12.992188 0.652344 25.789062 0.652344 C 32.058594 0.652344 38 -2.089844 42.113281 -6.007812 C 42.441406 -6.332031 42.308594 -7.246094 42.113281 -7.703125 L 37.152344 -12.667969 C 36.5 -13.1875 35.585938 -13.253906 35.128906 -12.863281 C 32.644531 -10.382812 29.382812 -8.878906 25.789062 -8.878906 Z M 25.789062 -8.878906 "/></g></g></g><g fill="#6837fd" fill-opacity="1"><g transform="translate(281.891593, 55.235326)"><g><path d="M 28.46875 -37.933594 L 28.46875 -44.527344 C 28.46875 -45.117188 27.878906 -45.703125 27.03125 -45.703125 L 1.566406 -45.703125 C 0.785156 -45.703125 0.195312 -45.117188 0.195312 -44.527344 L 0.195312 -37.933594 C 0.195312 -37.414062 0.785156 -36.824219 1.566406 -36.824219 L 9.335938 -36.824219 L 9.335938 -1.109375 C 9.335938 -0.585938 9.925781 0 10.707031 0 L 17.890625 0 C 18.738281 0 19.328125 -0.585938 19.328125 -1.109375 L 19.328125 -36.824219 L 27.03125 -36.824219 C 27.878906 -36.824219 28.46875 -37.414062 28.46875 -37.933594 Z M 28.46875 -37.933594 "/></g></g></g><g fill="#6837fd" fill-opacity="1"><g transform="translate(312.768764, 55.235326)"><g><path d="M 20.175781 -12.015625 C 29.773438 -12.015625 37.671875 -19.585938 37.671875 -29.054688 C 37.671875 -38.457031 29.773438 -46.226562 20.175781 -46.226562 C 10.511719 -46.226562 2.613281 -38.457031 2.613281 -29.054688 C 2.613281 -19.585938 10.511719 -12.015625 20.175781 -12.015625 Z M 20.175781 -36.757812 C 24.355469 -36.757812 27.683594 -33.363281 27.683594 -29.054688 C 27.683594 -24.679688 24.355469 -21.480469 20.175781 -21.480469 C 15.996094 -21.480469 12.601562 -24.679688 12.601562 -29.054688 C 12.601562 -33.363281 15.996094 -36.757812 20.175781 -36.757812 Z M 35.714844 -1.109375 L 35.714844 -8.292969 C 35.714844 -8.878906 35.128906 -9.46875 34.277344 -9.46875 L 5.679688 -9.46875 C 4.832031 -9.46875 4.308594 -8.878906 4.308594 -8.292969 L 4.308594 -1.109375 C 4.308594 -0.585938 4.832031 0 5.679688 0 L 34.277344 0 C 35.128906 0 35.714844 -0.585938 35.714844 -1.109375 Z M 35.714844 -1.109375 "/></g></g></g><g fill="#6837fd" fill-opacity="1"><g transform="translate(356.048889, 55.235326)"><g><path d="M 28.207031 0 L 36.757812 0 C 37.804688 0 38.390625 -0.914062 37.804688 -1.761719 L 37.804688 -1.699219 L 26.835938 -19.328125 C 31.144531 -20.828125 35.84375 -24.222656 35.84375 -31.929688 C 35.84375 -45.703125 19.980469 -45.703125 19.980469 -45.703125 L 5.484375 -45.703125 C 4.699219 -45.703125 4.113281 -45.117188 4.113281 -44.527344 L 4.113281 -37.152344 L 7.441406 -31.796875 C 8.355469 -30.359375 9.335938 -29.054688 10.1875 -27.617188 L 5.484375 -27.617188 C 4.699219 -27.617188 4.113281 -27.03125 4.113281 -26.441406 L 4.113281 -1.109375 C 4.113281 -0.585938 4.699219 0 5.484375 0 L 12.730469 0 C 13.582031 0 14.101562 -0.585938 14.101562 -1.109375 L 14.101562 -18.085938 L 16.0625 -18.085938 L 27.03125 -0.585938 L 26.964844 -0.652344 C 27.097656 -0.328125 27.8125 0 28.207031 0 Z M 21.21875 -27.683594 L 15.867188 -36.171875 L 19.980469 -36.171875 C 21.21875 -36.171875 25.789062 -36.171875 25.789062 -31.929688 C 25.789062 -28.726562 23.308594 -27.8125 21.21875 -27.683594 Z M 21.21875 -27.683594 "/></g></g></g><g fill="#6837fd" fill-opacity="1"><g transform="translate(397.631786, 55.235326)"><g><path d="M 40.414062 -45.703125 L 31.535156 -45.703125 C 31.273438 -45.703125 30.6875 -45.507812 30.425781 -45.246094 L 20.5 -31.40625 C 17.042969 -36.238281 13.90625 -40.414062 10.511719 -45.246094 C 10.25 -45.574219 9.664062 -45.703125 9.335938 -45.703125 L 0.523438 -45.703125 C -0.652344 -45.703125 -1.242188 -44.660156 -0.523438 -43.875 L -0.585938 -43.875 C 1.761719 -40.613281 4.308594 -36.957031 6.660156 -33.691406 C 9.53125 -29.578125 12.601562 -25.464844 15.472656 -21.351562 L 15.472656 -1.109375 C 15.472656 -0.585938 16.0625 0 16.84375 0 L 24.09375 0 C 24.941406 0 25.464844 -0.585938 25.464844 -1.109375 L 25.464844 -21.351562 L 41.527344 -43.875 L 41.460938 -43.875 C 42.179688 -44.660156 41.589844 -45.703125 40.414062 -45.703125 Z M 40.414062 -45.703125 "/></g></g></g><g fill="#6837fd" fill-opacity="1"><g transform="translate(14.314532, 102.0984)"><g><path d="M 12.898438 -33.410156 L 31.070312 -33.410156 C 31.792969 -33.410156 32.332031 -33.953125 32.332031 -34.492188 L 32.332031 -40.910156 C 32.332031 -41.449219 31.792969 -41.988281 31.070312 -41.988281 L 4.980469 -41.988281 C 4.199219 -41.988281 3.71875 -41.449219 3.71875 -40.910156 L 3.71875 -1.019531 C 3.71875 -0.539062 4.199219 0 4.980469 0 L 31.550781 0 C 32.332031 0 32.871094 -0.539062 32.871094 -1.019531 L 32.871094 -7.679688 C 32.871094 -8.21875 32.332031 -8.757812 31.550781 -8.757812 L 12.898438 -8.757812 L 12.898438 -16.796875 L 28.253906 -16.796875 C 28.972656 -16.796875 29.453125 -17.335938 29.453125 -17.816406 L 29.453125 -24.292969 C 29.453125 -24.832031 28.972656 -25.375 28.253906 -25.375 L 12.898438 -25.375 Z M 12.898438 -33.410156 "/></g></g></g><g fill="#6837fd" fill-opacity="1"><g transform="translate(51.076583, 102.0984)"><g><path d="M 39.53125 -1.019531 L 39.53125 -40.910156 C 39.53125 -41.449219 39.050781 -41.988281 38.269531 -41.988281 L 31.671875 -41.988281 C 30.890625 -41.988281 30.414062 -41.449219 30.414062 -40.910156 L 30.414062 -16.554688 C 24.355469 -25.253906 18.835938 -32.929688 12.835938 -41.570312 C 12.597656 -41.871094 12.058594 -41.988281 11.816406 -41.988281 L 5.039062 -41.988281 C 4.320312 -41.988281 3.777344 -41.449219 3.777344 -40.910156 L 3.777344 -1.019531 C 3.777344 -0.539062 4.320312 0 5.039062 0 L 11.757812 0 C 12.476562 0 13.015625 -0.539062 13.015625 -1.019531 L 13.015625 -25.492188 L 30.53125 -0.417969 C 30.773438 -0.121094 31.3125 0 31.550781 0 L 38.269531 0 C 39.050781 0 39.53125 -0.539062 39.53125 -1.019531 Z M 39.53125 -1.019531 "/></g></g></g><g fill="#6837fd" fill-opacity="1"><g transform="translate(97.074024, 102.0984)"><g><path d="M 40.488281 -24.773438 L 26.632812 -24.773438 C 25.851562 -24.773438 25.3125 -24.234375 25.3125 -23.753906 L 25.3125 -17.574219 C 25.3125 -16.976562 25.851562 -16.554688 26.632812 -16.554688 L 32.511719 -16.554688 L 32.511719 -12.058594 C 30.230469 -9.65625 27.171875 -8.15625 23.8125 -8.15625 C 17.214844 -8.15625 11.816406 -11.996094 11.816406 -20.996094 C 11.816406 -29.09375 17.214844 -33.832031 23.8125 -33.832031 C 27.113281 -33.832031 30.171875 -32.453125 32.390625 -30.230469 C 32.75 -29.8125 33.53125 -29.753906 34.011719 -30.171875 L 38.691406 -34.792969 C 39.109375 -35.152344 39.109375 -35.992188 38.808594 -36.410156 C 35.089844 -40.070312 29.574219 -42.589844 23.8125 -42.589844 C 12.117188 -42.589844 2.578125 -33.472656 2.578125 -20.996094 C 2.578125 -7.316406 11.515625 0.601562 22.914062 0.601562 C 27.113281 0.601562 30.472656 -0.480469 33.230469 -3 C 33.230469 -1.738281 33.292969 -2.039062 33.351562 -0.839844 C 33.351562 -0.238281 34.011719 0.179688 34.671875 0.179688 L 40.488281 0.179688 C 41.210938 0.179688 41.6875 -0.359375 41.6875 -0.898438 L 41.6875 -23.753906 C 41.6875 -24.234375 41.210938 -24.773438 40.488281 -24.773438 Z M 40.488281 -24.773438 "/></g></g></g><g fill="#6837fd" fill-opacity="1"><g transform="translate(144.930532, 102.0984)"><g><path d="M 14.757812 -33.832031 L 17.933594 -33.832031 C 18.714844 -33.832031 19.195312 -34.371094 19.195312 -34.851562 L 19.195312 -40.910156 C 19.195312 -41.449219 18.714844 -41.988281 17.933594 -41.988281 L 2.339844 -41.988281 C 1.621094 -41.988281 1.078125 -41.449219 1.078125 -40.910156 L 1.078125 -34.851562 C 1.078125 -34.371094 1.621094 -33.832031 2.339844 -33.832031 L 5.578125 -33.832031 L 5.578125 -8.15625 L 2.097656 -8.15625 C 1.378906 -8.15625 0.839844 -7.617188 0.839844 -7.136719 L 0.839844 -1.019531 C 0.839844 -0.539062 1.378906 0 2.097656 0 L 18.175781 0 C 18.894531 0 19.433594 -0.539062 19.433594 -1.019531 L 19.433594 -7.136719 C 19.433594 -7.617188 18.894531 -8.15625 18.175781 -8.15625 L 14.757812 -8.15625 Z M 14.757812 -33.832031 "/></g></g></g><g fill="#6837fd" fill-opacity="1"><g transform="translate(167.419691, 102.0984)"><g><path d="M 39.53125 -1.019531 L 39.53125 -40.910156 C 39.53125 -41.449219 39.050781 -41.988281 38.269531 -41.988281 L 31.671875 -41.988281 C 30.890625 -41.988281 30.414062 -41.449219 30.414062 -40.910156 L 30.414062 -16.554688 C 24.355469 -25.253906 18.835938 -32.929688 12.835938 -41.570312 C 12.597656 -41.871094 12.058594 -41.988281 11.816406 -41.988281 L 5.039062 -41.988281 C 4.320312 -41.988281 3.777344 -41.449219 3.777344 -40.910156 L 3.777344 -1.019531 C 3.777344 -0.539062 4.320312 0 5.039062 0 L 11.757812 0 C 12.476562 0 13.015625 -0.539062 13.015625 -1.019531 L 13.015625 -25.492188 L 30.53125 -0.417969 C 30.773438 -0.121094 31.3125 0 31.550781 0 L 38.269531 0 C 39.050781 0 39.53125 -0.539062 39.53125 -1.019531 Z M 39.53125 -1.019531 "/></g></g></g><g fill="#6837fd" fill-opacity="1"><g transform="translate(213.417132, 102.0984)"><g><path d="M 12.898438 -33.410156 L 31.070312 -33.410156 C 31.792969 -33.410156 32.332031 -33.953125 32.332031 -34.492188 L 32.332031 -40.910156 C 32.332031 -41.449219 31.792969 -41.988281 31.070312 -41.988281 L 4.980469 -41.988281 C 4.199219 -41.988281 3.71875 -41.449219 3.71875 -40.910156 L 3.71875 -1.019531 C 3.71875 -0.539062 4.199219 0 4.980469 0 L 31.550781 0 C 32.332031 0 32.871094 -0.539062 32.871094 -1.019531 L 32.871094 -7.679688 C 32.871094 -8.21875 32.332031 -8.757812 31.550781 -8.757812 L 12.898438 -8.757812 L 12.898438 -16.796875 L 28.253906 -16.796875 C 28.972656 -16.796875 29.453125 -17.335938 29.453125 -17.816406 L 29.453125 -24.292969 C 29.453125 -24.832031 28.972656 -25.375 28.253906 -25.375 L 12.898438 -25.375 Z M 12.898438 -33.410156 "/></g></g></g><g fill="#6837fd" fill-opacity="1"><g transform="translate(250.179181, 102.0984)"><g><path d="M 12.898438 -33.410156 L 31.070312 -33.410156 C 31.792969 -33.410156 32.332031 -33.953125 32.332031 -34.492188 L 32.332031 -40.910156 C 32.332031 -41.449219 31.792969 -41.988281 31.070312 -41.988281 L 4.980469 -41.988281 C 4.199219 -41.988281 3.71875 -41.449219 3.71875 -40.910156 L 3.71875 -1.019531 C 3.71875 -0.539062 4.199219 0 4.980469 0 L 31.550781 0 C 32.332031 0 32.871094 -0.539062 32.871094 -1.019531 L 32.871094 -7.679688 C 32.871094 -8.21875 32.332031 -8.757812 31.550781 -8.757812 L 12.898438 -8.757812 L 12.898438 -16.796875 L 28.253906 -16.796875 C 28.972656 -16.796875 29.453125 -17.335938 29.453125 -17.816406 L 29.453125 -24.292969 C 29.453125 -24.832031 28.972656 -25.375 28.253906 -25.375 L 12.898438 -25.375 Z M 12.898438 -33.410156 "/></g></g></g><g fill="#6837fd" fill-opacity="1"><g transform="translate(286.941229, 102.0984)"><g><path d="M 25.914062 0 L 33.769531 0 C 34.730469 0 35.269531 -0.839844 34.730469 -1.621094 L 34.730469 -1.558594 L 24.652344 -17.753906 C 28.613281 -19.136719 32.929688 -22.253906 32.929688 -29.332031 C 32.929688 -41.988281 18.355469 -41.988281 18.355469 -41.988281 L 5.039062 -41.988281 C 4.320312 -41.988281 3.777344 -41.449219 3.777344 -40.910156 L 3.777344 -34.132812 L 6.839844 -29.210938 C 7.679688 -27.894531 8.578125 -26.691406 9.359375 -25.375 L 5.039062 -25.375 C 4.320312 -25.375 3.777344 -24.832031 3.777344 -24.292969 L 3.777344 -1.019531 C 3.777344 -0.539062 4.320312 0 5.039062 0 L 11.695312 0 C 12.476562 0 12.957031 -0.539062 12.957031 -1.019531 L 12.957031 -16.617188 L 14.757812 -16.617188 L 24.832031 -0.539062 L 24.773438 -0.601562 C 24.894531 -0.300781 25.554688 0 25.914062 0 Z M 19.496094 -25.433594 L 14.578125 -33.230469 L 18.355469 -33.230469 C 19.496094 -33.230469 23.695312 -33.230469 23.695312 -29.332031 C 23.695312 -26.394531 21.414062 -25.554688 19.496094 -25.433594 Z M 19.496094 -25.433594 "/></g></g></g><g fill="#6837fd" fill-opacity="1"><g transform="translate(325.142579, 102.0984)"><g><path d="M 14.757812 -33.832031 L 17.933594 -33.832031 C 18.714844 -33.832031 19.195312 -34.371094 19.195312 -34.851562 L 19.195312 -40.910156 C 19.195312 -41.449219 18.714844 -41.988281 17.933594 -41.988281 L 2.339844 -41.988281 C 1.621094 -41.988281 1.078125 -41.449219 1.078125 -40.910156 L 1.078125 -34.851562 C 1.078125 -34.371094 1.621094 -33.832031 2.339844 -33.832031 L 5.578125 -33.832031 L 5.578125 -8.15625 L 2.097656 -8.15625 C 1.378906 -8.15625 0.839844 -7.617188 0.839844 -7.136719 L 0.839844 -1.019531 C 0.839844 -0.539062 1.378906 0 2.097656 0 L 18.175781 0 C 18.894531 0 19.433594 -0.539062 19.433594 -1.019531 L 19.433594 -7.136719 C 19.433594 -7.617188 18.894531 -8.15625 18.175781 -8.15625 L 14.757812 -8.15625 Z M 14.757812 -33.832031 "/></g></g></g><g fill="#6837fd" fill-opacity="1"><g transform="translate(347.631756, 102.0984)"><g><path d="M 39.53125 -1.019531 L 39.53125 -40.910156 C 39.53125 -41.449219 39.050781 -41.988281 38.269531 -41.988281 L 31.671875 -41.988281 C 30.890625 -41.988281 30.414062 -41.449219 30.414062 -40.910156 L 30.414062 -16.554688 C 24.355469 -25.253906 18.835938 -32.929688 12.835938 -41.570312 C 12.597656 -41.871094 12.058594 -41.988281 11.816406 -41.988281 L 5.039062 -41.988281 C 4.320312 -41.988281 3.777344 -41.449219 3.777344 -40.910156 L 3.777344 -1.019531 C 3.777344 -0.539062 4.320312 0 5.039062 0 L 11.757812 0 C 12.476562 0 13.015625 -0.539062 13.015625 -1.019531 L 13.015625 -25.492188 L 30.53125 -0.417969 C 30.773438 -0.121094 31.3125 0 31.550781 0 L 38.269531 0 C 39.050781 0 39.53125 -0.539062 39.53125 -1.019531 Z M 39.53125 -1.019531 "/></g></g></g><g fill="#6837fd" fill-opacity="1"><g transform="translate(393.629197, 102.0984)"><g><path d="M 40.488281 -24.773438 L 26.632812 -24.773438 C 25.851562 -24.773438 25.3125 -24.234375 25.3125 -23.753906 L 25.3125 -17.574219 C 25.3125 -16.976562 25.851562 -16.554688 26.632812 -16.554688 L 32.511719 -16.554688 L 32.511719 -12.058594 C 30.230469 -9.65625 27.171875 -8.15625 23.8125 -8.15625 C 17.214844 -8.15625 11.816406 -11.996094 11.816406 -20.996094 C 11.816406 -29.09375 17.214844 -33.832031 23.8125 -33.832031 C 27.113281 -33.832031 30.171875 -32.453125 32.390625 -30.230469 C 32.75 -29.8125 33.53125 -29.753906 34.011719 -30.171875 L 38.691406 -34.792969 C 39.109375 -35.152344 39.109375 -35.992188 38.808594 -36.410156 C 35.089844 -40.070312 29.574219 -42.589844 23.8125 -42.589844 C 12.117188 -42.589844 2.578125 -33.472656 2.578125 -20.996094 C 2.578125 -7.316406 11.515625 0.601562 22.914062 0.601562 C 27.113281 0.601562 30.472656 -0.480469 33.230469 -3 C 33.230469 -1.738281 33.292969 -2.039062 33.351562 -0.839844 C 33.351562 -0.238281 34.011719 0.179688 34.671875 0.179688 L 40.488281 0.179688 C 41.210938 0.179688 41.6875 -0.359375 41.6875 -0.898438 L 41.6875 -23.753906 C 41.6875 -24.234375 41.210938 -24.773438 40.488281 -24.773438 Z M 40.488281 -24.773438 "/></g></g></g></svg>